<svg width="243" height="231" viewBox="0 0 243 231" fill="none" xmlns="http://www.w3.org/2000/svg">
<rect x="2" y="157" width="20" height="74" fill="black"/>
<rect x="2" y="137" width="20" height="16" fill="black"/>
<path d="M1 140.736C1 140.736 8 138.236 12 139.236C16 140.236 1 149.236 1 149.236C1 149.236 14.5 144.236 19 144.236C23.5 144.236 12 151.736 12 151.736" stroke="#E5E1BD"/>
<rect x="134" y="78" width="20" height="16" fill="black"/>
<rect x="134" y="101" width="20" height="130" fill="black"/>
<path d="M135 80.7361C135 80.7361 142 78.2361 146 79.2361C150 80.2361 135 89.2361 135 89.2361C135 89.2361 148.5 84.2361 153 84.2361C157.5 84.2361 146 91.7361 146 91.7361" stroke="#E5E1BD"/>
<rect x="222" y="20" width="20" height="211" fill="black"/>
<rect x="222" width="20" height="16" fill="black"/>
<path d="M223 2.73611C223 2.73611 230 0.236111 234 1.23611C238 2.23611 223 11.2361 223 11.2361C223 11.2361 236.5 6.23611 241 6.23611C245.5 6.23611 234 13.7361 234 13.7361" stroke="#E5E1BD"/>
<rect x="46" y="115" width="20" height="116" fill="black"/>
<rect x="46" y="74" width="20" height="37" fill="black"/>
<path d="M46 77.7721C46 77.7721 52.9837 75.2203 56.9744 76.241C60.9651 77.2617 45.5 84.8964 46 86.4482C46.5 88 59.4686 81.3446 63.9581 81.3446C68.4476 81.3446 56.9744 89 56.9744 89" stroke="#E5E1BD"/>
<path d="M58.5 88C58.5 88 49 93.5 49 95C49 96.5 60.5 89.5 64.5 90C68.5 90.5 49.5 98.5 50 100.5C50.5 102.5 63.5 97 65 99C66.5 101 50 109.5 50 109.5" stroke="#E5E1BD"/>
<rect x="90" y="171" width="20" height="60" fill="black"/>
<rect x="90" y="115" width="20" height="52" fill="black"/>
<path d="M90.0119 119.772C90.0119 119.772 96.9956 117.22 100.986 118.241C104.977 119.262 89.5119 126.896 90.0119 128.448C90.5119 130 103.48 123.345 107.97 123.345C112.46 123.345 100.986 131 100.986 131" stroke="#E5E1BD"/>
<path d="M102.512 130C102.512 130 93.0119 135.5 93.0119 137C93.0119 138.5 104.512 131.5 108.512 132C112.512 132.5 93.5119 140.5 94.0119 142.5C94.5119 144.5 107.512 139 109.012 141C110.512 143 94.0119 151.5 94.0119 151.5" stroke="#E5E1BD"/>
<rect x="178" y="151" width="20" height="80" fill="#F7D1B0"/>
<rect x="178" y="67" width="20" height="80" fill="black"/>
<path d="M178.012 70.7721C178.012 70.7721 184.996 68.2203 188.986 69.241C192.977 70.2617 177.512 77.8964 178.012 79.4482C178.512 81 191.48 74.3446 195.97 74.3446C200.46 74.3446 188.986 82 188.986 82" stroke="#E5E1BD"/>
<path d="M181.012 102.772C181.012 102.772 187.996 100.22 191.986 101.241C195.977 102.262 180.512 109.896 181.012 111.448C181.512 113 194.48 106.345 198.97 106.345C203.46 106.345 191.986 114 191.986 114" stroke="#E5E1BD"/>
<path d="M190.512 81C190.512 81 181.012 86.5 181.012 88C181.012 89.5 192.512 82.5 196.512 83C200.512 83.5 181.512 91.5 182.012 93.5C182.512 95.5 195.512 90 197.012 92C198.512 94 182.012 102.5 182.012 102.5" stroke="#E5E1BD"/>
<path d="M193.512 113C193.512 113 184.012 118.5 184.012 120C184.012 121.5 195.512 114.5 199.512 115C203.512 115.5 184.512 123.5 185.012 125.5C185.512 127.5 198.512 122 200.012 124C201.512 126 185.012 134.5 185.012 134.5" stroke="#E5E1BD"/>
</svg>
