<svg width="44" height="45" viewBox="0 0 44 45" fill="none" xmlns="http://www.w3.org/2000/svg">
<path d="M22 0C9.84933 0 0 10.0732 0 22.5C0 34.9268 9.84933 45 22 45C34.1507 45 44 34.9268 44 22.5C44 10.0747 34.1507 0.00153531 22 0ZM32.0895 32.4504C31.6947 33.1136 30.8495 33.3209 30.204 32.9171C25.0384 29.6883 18.5352 28.9591 10.8777 30.7477C10.1391 30.9212 9.40348 30.4483 9.23535 29.6929C9.06571 28.9376 9.52658 28.1853 10.2667 28.0133C18.6463 26.0558 25.8356 26.8987 31.6347 30.522C32.2802 30.9289 32.4858 31.7902 32.0895 32.4504ZM34.7812 26.326C34.2843 27.152 33.2274 27.4099 32.4213 26.9033C26.5096 23.1863 17.4934 22.11 10.4994 24.281C9.59263 24.5619 8.63487 24.0384 8.35865 23.1126C8.08543 22.1853 8.59734 21.2073 9.50256 20.9248C17.4919 18.4452 27.4253 19.6459 34.2152 23.914C35.0229 24.4222 35.2781 25.5015 34.7812 26.326ZM35.0124 19.9452C27.9207 15.6387 16.2234 15.2426 9.45302 17.3429C8.36615 17.6807 7.21624 17.0527 6.88748 15.9411C6.55872 14.8296 7.1712 13.6535 8.25957 13.3158C16.0313 10.9038 28.949 11.369 37.1125 16.325C38.0898 16.9191 38.4111 18.2103 37.8316 19.2083C37.2536 20.2093 35.9881 20.5394 35.0124 19.9452Z" fill="black"/>
</svg>
